<?xml version="1.0" encoding="UTF-8" standalone="no"?>
<!DOCTYPE svg PUBLIC "-//W3C//DTD SVG 1.1//EN" "http://www.w3.org/Graphics/SVG/1.1/DTD/svg11.dtd">
<svg width="100%" height="100%" viewBox="0 0 591 649" version="1.1" xmlns="http://www.w3.org/2000/svg" xmlns:xlink="http://www.w3.org/1999/xlink" xml:space="preserve" xmlns:serif="http://www.serif.com/" style="fill-rule:evenodd;clip-rule:evenodd;stroke-linejoin:round;stroke-miterlimit:2;">
    <g transform="matrix(1,0,0,1,-10513.908936,-1194.248839)">
        <g transform="matrix(4.166667,0,0,4.166667,8052.16875,0)">
            <g transform="matrix(0.16766,0,0,0.16766,575.94326,278.528888)">
                <path d="M298.517,873.472C297.646,872.978 287.624,867.296 287.624,867.296C281.099,863.6 282.008,862.369 217.903,756.267C214.147,750.052 201.097,626.894 195.762,588.466C195.312,585.222 192.209,583.105 176.462,573.591C175.647,573.099 174.36,573.76 175.764,585.466C194.119,738.413 194.892,742.966 197.202,756.566C198.308,763.08 243.779,836.953 246.291,840.607C248.626,844.002 241.663,839.999 241.313,839.798C224.484,830.122 227.047,827.165 181.998,750.199C176.358,740.563 177.446,740.12 166.309,611.518C162.114,563.068 159.418,560.123 163.504,560.399C168.904,560.764 336.772,571.516 343.588,572.094C345.363,572.244 345.813,573.94 334.087,592.236C332.817,594.218 341.425,588.222 214.741,588.222C205.295,588.222 244.264,592.762 328.502,596.461C333.626,596.686 319.003,617.823 317.569,617.894C315.259,618.009 312.93,617.728 310.629,617.965C306.726,618.367 347.872,777.705 351.439,791.515C353.561,799.735 354.959,799.035 411.956,878.17C477.413,969.051 482.534,973.597 477.572,972.177C463.452,968.137 458.626,968.786 449.894,956.209C424.829,920.102 425.39,919.95 400.198,883.717C367.053,836.045 338.908,795.149 333.598,787.434C323.839,773.254 301.458,644.661 294.207,618.579C293.086,614.547 278.276,613.819 277.595,614.584C274.924,617.583 309.357,767.307 312.397,780.526C314.061,787.765 315.191,787.314 423.216,945.613C426.298,950.13 421.593,945.86 416.69,943.16C389.447,928.159 391.916,925.128 374.993,899.179C292.41,772.546 292.414,772.553 292.41,772.546C289.636,767.347 264.969,625.557 261.698,612.442C260.913,609.295 243.038,604.374 243.459,607.496C244.379,614.32 273.767,771.271 274.274,773.552C277.071,786.148 353.758,898.107 361.018,908.706C364.154,913.284 342.587,899.814 339.543,897.448C331.84,891.46 263.273,777.813 256.9,767.25C249.821,755.517 234.669,630.977 228.816,602.434C228.35,600.16 212.999,593.945 211.553,593.36C208.963,592.311 209.021,593.759 209.425,596.512C211.887,613.276 231.876,741.813 233.841,754.447C237.611,778.691 242.218,776.844 290.829,856.284C298.789,869.293 309.377,880.831 298.517,873.472Z" style="fill:rgb(3,50,79);"/>
                <path d="M591.887,207.023C592.104,207.05 591.965,207.156 594.557,207.584C527.875,310.53 527.136,313.946 525.637,311.399C514.683,292.795 514.069,291.778 517.903,285.785C524.441,275.568 513.981,279.902 499.48,275.57C497.725,275.046 347.891,231.051 343.526,230.291C338.74,229.458 155.138,250.832 132.552,251.764C129.321,251.897 126.462,252.832 128.641,250.593C148.695,229.979 151.81,234.788 180.511,232.636C194.675,231.574 194.508,231.409 357.473,218.153C374.665,216.755 374.305,219.941 449.577,243.248C466.288,248.422 529.375,269.74 530.452,268.441C538.388,258.874 540.322,255.682 538.324,254.914C533.811,253.178 372.266,201.456 371.541,201.298C367.985,200.522 228.026,212.7 199.518,214.714C189.439,215.426 189.577,214.824 179.495,216.7C171.794,218.133 202.167,200.85 207.473,200.261C209.086,200.082 380.812,190.112 391.511,189.689C404.143,189.189 548.392,246.203 552.139,243.016C564.881,232.178 563.65,230.215 562.393,229.746C483.385,200.275 482.675,202.629 403.42,173.704C391.721,169.434 241.614,182.385 241.376,180.591C241.156,178.935 262.456,167.454 265.462,167.209C271.38,166.726 420.385,161.068 423.396,161.938C442.432,167.441 573.842,222.676 578.283,219.208C591.036,209.251 591.407,209.332 591.887,207.023Z" style="fill:rgb(3,50,79);"/>
                <path d="M735.169,733.03C733.627,735.046 733.654,734.954 733.311,735.536C714.749,696.135 673.798,623.663 678.523,623.653C701.924,623.601 701.892,625.063 702.213,625.659C703.426,627.911 703.207,636.305 710.843,628.843C771.996,569.08 836.161,512.511 842.33,498.423C848.993,483.205 925.434,308.632 926.511,308.592C927.947,308.539 933.582,329.498 931.713,333.592C930.177,336.958 840.177,527.679 839.702,528.599C831.793,543.89 711.764,644.847 712.982,648.45C717.984,663.252 719.43,663.175 720.421,662.39C721.924,661.2 847.58,546.892 849.136,545.164C853.767,540.021 931.801,368.953 933.36,369.821C933.708,370.015 933.86,399.929 932.197,403.37C925.895,416.416 925.747,416.247 851.108,565.306C845.686,576.135 738.115,666.06 738.115,666.06C738.115,666.06 723.022,676.129 724.151,680.589C728.041,695.949 729.512,696.344 730.508,695.512C730.619,695.42 842.379,599.406 852.107,591.049C864.566,580.346 863.299,579.266 888.811,528.656C930.916,445.131 933.83,434.725 933.547,442.487C932.616,468.106 933.052,468.532 921.028,491.244C863.439,600.019 864.814,600.841 858.098,609.162C854.689,613.386 731.556,709.807 731.443,713.499C731.395,715.089 730.988,728.372 735.169,733.03Z" style="fill:rgb(3,50,79);"/>
                <path d="M736.543,170.47C735.356,169.761 735.458,169.803 735.356,169.761C718.144,162.724 536.792,69.859 512.312,57.882C502.569,53.115 477.524,54.741 474.496,54.937C445.451,56.822 514.146,40.718 536.346,52.776C554.291,62.522 735.184,160.772 759.879,176.037C762.309,177.539 751.288,232.645 750.066,235.296C747.426,241.023 610.349,419.309 598.103,435.237C595.292,438.893 586.88,420.678 586.574,419.487C585.855,416.694 703.266,259.727 726.038,228.172C743.071,204.568 746.177,205.406 749.579,176.504C749.959,173.282 748.899,173.617 745.56,173.001C741.264,172.208 743.323,175.085 740.802,191.547C739.641,199.124 739.436,200.466 686.542,270.532C660.264,305.342 583.96,412.078 581.724,411.175C581.363,411.029 572.114,394.374 571.815,393.429C571.483,392.385 580.165,379.957 580.954,378.828C592.582,362.181 675.466,243.53 727.903,171.872C730.253,168.661 731.911,173.338 736.543,170.47Z" style="fill:rgb(3,50,79);"/>
                <path d="M841.648,794.732C828.872,802.322 713.74,870.712 682.78,890.992C674.198,896.613 673.616,892.646 665.853,886.078C631.603,857.096 631.079,857.023 624.782,841.384C543.652,639.894 539.544,641.685 534.608,623.476C534.211,622.012 535.103,621.577 553.493,621.715C555.483,621.73 559.569,631.388 559.956,632.302C561.648,636.302 571.899,659.904 572.941,662.303C577.18,672.064 625.551,783.433 625.936,784.31C663.18,869.046 662.307,869.936 670.678,876.264C680.591,883.758 683.937,888.11 687.594,883.576C690.295,880.226 671.92,869.85 668.807,865.292C667.116,862.818 563.436,623.588 563.428,623.504C563.271,621.903 564.191,621.841 583.506,622.393C585.226,622.442 585.773,622.884 631.958,725.292C694.606,864.204 701.672,866.035 693.743,874.661C687.687,881.249 696.261,874.679 703.76,869.874C719.191,859.987 721.573,858.461 895.227,744.093C929.58,721.468 930.961,676.988 928.719,703.488C927.503,717.853 912.917,741.198 911.035,744.21C899.319,762.962 896.826,760.727 841.648,794.732Z" style="fill:rgb(3,50,79);"/>
                <path d="M122.745,760.296C121.06,757.896 117.389,752.666 104.673,728.413C100.905,721.227 99.625,474.026 97.817,465.436C96.461,458.993 99.531,460.104 105.639,457.899C153.158,440.743 153.58,441.149 161.543,442.222C236.639,452.339 236.56,452.364 245.501,453.495C258.086,455.087 399.884,473.026 402.736,474.053C405.308,474.98 394.917,490.648 394.271,491.305C391.402,494.221 142.724,463.392 126.504,462.431C124.302,462.301 100.841,469.133 101.854,474.432C103.276,481.876 106.521,476.217 123.59,469.78C127.758,468.209 354.226,495.59 387.46,498.802C390.961,499.141 379.783,518.186 376.482,517.985C317.412,514.394 160.263,497.646 141.484,495.645C107.534,492.026 105.439,489.642 105.634,492.514C113.773,612.409 110.674,612.362 118.909,732.472C119.136,735.781 119.904,746.984 135.793,770.337C150.593,792.09 123.612,761.286 122.745,760.296Z" style="fill:rgb(3,50,79);"/>
                <path d="M591.887,207.023C475.233,162.439 451.687,152.669 430.421,144.701C418.237,140.136 296.262,150.056 300.954,145.868C311.849,136.144 327.987,135.411 330.495,135.297C330.764,135.285 444.679,133.492 446.499,133.548C455.976,133.84 604.36,200.736 607.407,199.238C609.002,198.453 625.773,190.205 627.15,189.049C629.093,187.418 626.948,186.571 598.6,175.256C570.924,164.209 457.276,114.85 452.534,114.183C448.668,113.639 360.362,115.186 358.541,115.287C355.036,115.484 361.031,112.256 361.33,112.096C370.906,106.941 370.651,105.291 391.499,105.12C473.969,104.441 474.045,104.475 480.557,107.371C493.568,113.156 569.919,147.106 642.209,181.862C645.483,183.435 560.856,305.718 542.311,335.39C540.782,337.836 539.496,336.11 528.852,317.335C527.662,315.236 528.817,315.031 561.986,262.819C593.663,212.954 605.442,198.195 594.557,207.584C591.965,207.156 592.104,207.05 591.887,207.023Z" style="fill:rgb(3,50,79);"/>
                <path d="M735.169,733.03C755.134,714.378 869.935,627.258 876.281,615.384C899.377,572.165 898.637,571.989 921.894,528.708C926.697,519.769 926.239,519.745 930.905,510.872C932.631,507.59 934.033,529.58 930.048,537.253C929.28,538.734 872.645,640.832 871.097,643.243C864.77,653.1 734.638,745.41 734.454,750.496C733.681,771.932 734.079,773.617 735.542,772.618C736.769,771.781 865.842,673.672 877.169,665.063C883.554,660.21 889.345,655.807 929.027,579.267C929.188,578.957 932.777,572.035 932.413,576.509C931.06,593.178 932.425,593.726 924.058,608.248C881.398,682.289 881.52,683.037 868.253,692.125C834.954,714.934 731.386,790.606 729.922,789.031C729.475,788.549 649.116,625.884 648.599,624.486C647.891,622.568 673.012,622.671 674.136,624.72C677.968,631.7 732.18,740.119 733.436,739.389C734.466,738.79 733.838,738.532 733.311,735.536C733.654,734.954 733.627,735.046 735.169,733.03Z" style="fill:rgb(3,50,79);"/>
                <path d="M717.906,833.525C719.501,826.417 617.491,624.58 621.37,623.299C621.39,623.293 643.727,621.88 645.159,624.651C646.436,627.124 725.005,786.263 725.192,786.659C736.581,810.874 719.075,814.31 724.696,818.227C725.987,819.126 812.473,756.382 845.459,733.441C894.573,699.283 895.064,698.555 898.001,694.208C900.688,690.229 900.203,689.989 928.216,642.352C928.439,641.972 932.04,635.849 932.197,638.553C933.232,656.379 927.737,659.523 894.601,715.558C889.941,723.44 888.359,722.052 760.227,807.091C721.37,832.88 721.4,835.455 717.906,833.525Z" style="fill:rgb(3,50,79);"/>
                <path d="M130.364,527.726C132.213,529.452 132.553,529.501 248.539,539.018C356.399,547.87 361.788,545.894 359.165,550.334C354.922,557.513 349.029,569.162 345.485,568.981C304.06,566.862 178.978,558.42 164.503,557.443C141.625,555.899 145.582,540.239 140.612,542.888C139.106,543.691 157.321,745.807 159.232,750.609C160.196,753.032 187.682,801.717 192.278,808.611C195.005,812.702 181.098,806.547 175.901,798.265C164.637,780.318 145.402,743.16 142.884,738.296C138.283,729.407 134.707,611.676 129.342,531.508C129.187,529.189 128.509,528.911 130.364,527.726Z" style="fill:rgb(3,50,79);"/>
                <path d="M414.644,81.816C423.31,76.74 424.532,76.576 425.492,76.447C431.673,75.617 499.363,77.361 500.5,77.498C509.097,78.534 657.925,156.19 684.719,169.023C689.223,171.18 684.895,172.216 678.934,180.804C564.162,346.176 565.555,347.099 555.282,361.268C554.051,362.966 542.227,342.73 543.108,340.35C544.884,335.544 603.005,249.23 608.301,241.365C646.729,184.296 645.178,181.654 656.611,177.854C667.752,174.151 670.064,174.579 671.304,174.204C674.07,173.366 670.798,172.896 662.687,169.064C648.388,162.31 499.724,92.089 483.313,85.985C477.929,83.983 416.091,84.474 413.486,84.709C408.914,85.123 414.428,81.941 414.644,81.816Z" style="fill:rgb(3,50,79);"/>
                <path d="M477.088,353.236C476.437,354.304 472.513,362.56 469.417,361.85C453.981,358.307 290.607,323.537 267.542,318.292C253.581,315.118 124.817,345.224 92.497,349.688C89.821,350.058 89.736,333.427 93.544,332.829C212.36,314.145 284.716,300.868 289.435,301.851C298.916,303.828 478.217,346.802 478.396,346.867C480.182,347.51 477.335,352.778 477.088,353.236Z" style="fill:rgb(3,50,79);"/>
                <path d="M581.488,953.51C581.857,954.647 582.601,956.934 569.462,962.375C567.848,963.043 567.792,961.812 470.05,842.874C448.708,816.903 445.019,818.748 435.666,786.452C418.407,726.859 384.586,619.428 387.465,619.402C388.753,619.39 403.026,619.26 403.519,620.486C407.764,631.03 466.756,820.539 470.897,826.215C473.634,829.967 508.581,869.285 581.488,953.51Z" style="fill:rgb(3,50,79);"/>
                <path d="M529.708,962.34C491.413,911.331 405.57,803.72 403.421,795.522C397.701,773.702 357.257,625.073 356.839,623.408C356.541,622.217 354.623,614.571 371.613,619.261C373.43,619.762 426.156,802.245 429.463,811.514C433.039,821.536 546.949,956.383 554.088,966.714C554.49,967.296 554.742,968.348 546.352,971.012C536.172,974.246 536.316,970.768 529.708,962.34Z" style="fill:rgb(3,50,79);"/>
                <path d="M485.593,335.091C480.003,333.654 290.074,288.359 289.547,288.25C285.746,287.465 97.62,319.917 94.597,319.136C92.307,318.545 97.556,303.158 97.927,302.902C101.461,300.461 290.69,276.427 307.474,274.295C313.41,273.541 317.353,273.04 380.456,290.655C427.76,303.86 496.561,319.881 495.239,322.422C488.682,335.02 486.867,335.062 485.593,335.091Z" style="fill:rgb(3,50,79);"/>
                <path d="M862.511,228.478C863.5,229.097 874.5,235.989 874.026,237.421C869.184,252.025 867.871,251.307 806.362,417.448C802.998,426.532 789.757,437.04 702.122,531.142C670.733,564.847 669.312,567.906 667.435,564.542C663.83,558.079 659.906,551.996 660.935,550.775C688.368,518.205 802.141,397.912 806.403,385.465C859.144,231.437 857.531,228.105 862.511,228.478Z" style="fill:rgb(3,50,79);"/>
                <path d="M884.517,247.506C885.463,246.21 885.198,245.54 886.675,246.082C887.572,246.411 892.734,251.293 893.239,251.77C899.772,257.949 897.507,259.168 894.208,267.376C888.148,282.455 834.191,416.721 817.091,455.313C813.842,462.648 813.517,462.61 747.841,527.837C713.565,561.879 684.473,594.367 682.612,591.415C674.959,579.271 676.112,577.843 676.898,576.871C681.384,571.321 792.472,454.189 802.558,443.555C824.024,420.92 819.783,418.315 831.096,389.349C858.672,318.742 857.604,318.498 884.517,247.506Z" style="fill:rgb(3,50,79);"/>
                <path d="M582.614,936.397C486.465,825.069 482.907,827.048 476.835,808.39C471.975,793.454 420.15,634.194 416.812,621.448C416.286,619.44 429.712,619.212 433.624,620.223C435.226,620.637 499.82,810.675 506.379,828.544C509.804,837.874 513.75,839.115 595.933,928.101C603.884,936.709 611.274,939.137 601.265,945.109C590.721,951.401 590.575,945.645 582.614,936.397Z" style="fill:rgb(3,50,79);"/>
                <path d="M460.666,380.605C456.673,386.35 457.806,389.033 452.594,388.066C364.409,371.716 237.648,345.124 229.583,346.866C197.708,353.75 91.756,380.276 90.68,377.431C85.218,362.986 91.369,362.377 106.48,359.396C248.162,331.45 247.99,330.538 260.501,329.537C262.989,329.338 413.853,362.57 449.459,369.689C456.556,371.108 456.374,370.922 463.376,372.832C465.408,373.386 463.878,374.231 460.666,380.605Z" style="fill:rgb(3,50,79);"/>
                <path d="M652.766,538.333C646.352,526.365 646.199,526.525 645.839,525.408C644.955,522.664 773.08,376.875 789.24,357.277C797.108,347.735 824.395,245.908 834.874,214.629C835.893,211.588 848.64,219.594 849.171,221.54C849.71,223.516 801.895,361.433 797.689,373.565C791.674,390.915 789.201,389.482 695.773,493.74C657.567,536.375 655.495,539.985 652.766,538.333Z" style="fill:rgb(3,50,79);"/>
                <path d="M601.328,917.658C522.117,831.985 519.738,833.516 515.229,820.598C509.702,804.761 449.675,632.764 446.642,622.462C445.582,618.86 462.671,619.897 464.347,620.772C467.368,622.348 537.567,817.257 543.745,834.412C549.247,849.687 571.957,866.867 627.107,922.906C633.723,929.629 627.89,930.291 619.626,934.756C617.974,935.648 617.439,935.262 601.328,917.658Z" style="fill:rgb(3,50,79);"/>
                <path d="M448.231,401.321C447.558,402.453 440.181,414.854 438.493,414.589C372.979,404.295 209.735,373.855 202.598,375.849C155.904,388.895 92.091,405.77 91.46,405.662C89.708,405.363 89.302,390.691 92.574,389.862C103.317,387.141 166.408,371.154 227.507,358.529C239.05,356.144 272.85,365.496 423.476,393.62C440.576,396.813 449.347,397.806 448.231,401.321Z" style="fill:rgb(3,50,79);"/>
                <path d="M811.156,201.453C811.539,200.373 812.668,198.393 824.601,206.399C825.743,207.165 825.218,208.101 814.617,243.534C783.996,345.88 784.314,346.312 778.19,353.241C768.409,364.307 644.942,507.925 640.68,512.721C639.914,513.584 638.903,513.564 631.92,501.26C629.025,496.161 635.937,490.865 637.74,488.699C648.934,475.254 736.838,369.681 777.049,320.127C783.274,312.457 783.15,312.041 811.156,201.453Z" style="fill:rgb(3,50,79);"/>
                <path d="M627.625,909.379C554.057,836.106 554.787,835.463 553.993,833.318C547.747,816.445 476.694,624.524 475.998,622.378C475.183,619.865 495.003,619.925 496.066,622.65C576.527,828.724 576.301,828.674 583.449,846.522C588.094,858.123 635.309,896.322 651.305,912.69C652.033,913.435 654.026,915.474 642.25,922.026C640.573,922.958 634.285,916.069 627.625,909.379Z" style="fill:rgb(3,50,79);"/>
                <path d="M431.476,423.648C434.517,424.709 433.535,426.151 425.153,440.192C423.727,442.581 183.449,403.216 177.527,404.619C162.092,408.276 92.292,433.353 90.821,429.432C85.824,416.116 91.75,416.016 105.477,412.414C203.723,386.63 203.419,384.471 211.422,385.921C248.017,392.551 416.65,420.908 431.476,423.648Z" style="fill:rgb(3,50,79);"/>
                <path d="M759.454,325.46C757.884,327.377 626.106,487.37 625.489,487.469C623.887,487.726 615.131,472.123 615.969,470.708C620.696,462.726 767.268,283.018 770.311,273.439C774.561,260.065 787.539,186.506 791.385,187.934C799.056,190.782 803.1,192.665 802.174,196.421C799.895,205.661 775.849,303.18 771.079,311.244C770.479,312.258 770.435,312.186 759.454,325.46Z" style="fill:rgb(3,50,79);"/>
                <path d="M519.581,972.433C522.493,978.279 502.867,976.197 500.781,974.222C495.208,968.948 404.538,842.221 396.272,830.668C370.811,795.081 368.417,796.125 362.636,772.462C325.658,621.098 323.824,618.109 327.48,618.123C328.578,618.128 340.687,618.174 341.12,619.66C350.381,651.427 389.481,801.964 392.913,807.247C398.876,816.426 509.39,959.263 519.581,972.433Z" style="fill:rgb(3,50,79);"/>
                <path d="M105.759,283.656C112.74,271.545 112.016,270.859 114.639,269.824C117.503,268.693 340.487,245.514 341.495,245.576C344.257,245.747 508.47,294.01 510.386,294.684C511.449,295.058 512.02,295.943 504.437,307.449C503.505,308.862 502.837,307.944 331.379,262.958C309.917,257.327 309.479,260.02 199.497,274.481C110.148,286.229 103.555,290.861 105.759,283.656Z" style="fill:rgb(3,50,79);"/>
                <path d="M668.515,898.482C668.674,898.653 670.247,900.349 669.241,901.303C664.893,905.427 663.221,911.54 655.088,903.944C599.5,852.025 595.498,852.917 588.689,835.424C514.034,643.642 513.077,644.047 505.707,623.43C504.333,619.585 525.176,620.81 526.03,622.727C534.124,640.881 532.364,641.582 620.877,852.357C626.24,865.129 628.011,864.094 668.515,898.482Z" style="fill:rgb(3,50,79);"/>
                <path d="M416.451,448.941C419.073,449.689 418.651,451.159 410.153,465.264C408.693,467.687 407.64,466.316 244.521,445.341C155.564,433.902 155.169,431.804 143.634,435.875C123.814,442.871 104.751,449.92 101.379,451.166C96.184,453.087 94.305,453.839 93.581,448.491C93.489,447.809 92.472,440.304 93.688,439.89C100.637,437.525 173.999,412.555 181.514,413.328C197.879,415.012 397.667,446.025 416.451,448.941Z" style="fill:rgb(3,50,79);"/>
                <path d="M909.811,272.28C917.065,283.21 920.164,283.708 914.968,295.704C914.54,296.691 828.02,493.653 826.132,496.262C821.887,502.125 715.457,602.929 700.099,618.096C698.252,619.92 688.051,608.463 693.715,602.715C819.985,474.581 824.485,475.114 833.375,453.448C906.966,274.106 906.561,269.769 909.811,272.28Z" style="fill:rgb(3,50,79);"/>
                <path d="M768.143,182.457C769.423,180.026 769.007,179.408 770.451,179.736C771.903,180.067 779.717,182.663 780.481,183.516C781.873,185.07 761.886,269.897 761.675,270.556C759.442,277.512 632.608,433.897 612.046,461.158C611.175,462.312 609.793,461.947 601.393,446.554C600.196,444.359 601.497,443.919 747.963,251.849C761.723,233.806 758.981,232.258 768.143,182.457Z" style="fill:rgb(3,50,79);"/>
                <path d="M370.855,530.729C370.217,531.838 363.321,543.817 361.483,543.691C342.611,542.389 131.076,527.803 125.833,524.121C125.335,523.771 106.841,497.803 112.474,498.241C133.312,499.859 132.989,501.673 372.528,523.309C377.866,523.791 373.477,525.978 370.855,530.729Z" style="fill:rgb(3,50,79);"/>
                <path d="M601.068,643.704C592.457,624.985 592.436,624.999 592.304,624.565C591.102,620.619 613.312,622.628 614.628,623.319C616.104,624.095 714.526,832.414 716.156,836.614C717.024,838.85 704.16,863.402 701.341,862.891C699.557,862.568 608.981,661.288 601.068,643.704Z" style="fill:rgb(3,50,79);"/>
                <path d="M581.48,368.486C580.285,370.178 568.926,388.62 566.965,385.203C559.291,371.84 555.128,369.036 560.786,360.697C571.118,345.47 687.896,173.365 691.417,171.374C693.102,170.422 723.695,168.263 721.041,172.224C692.17,215.298 592.764,352.87 581.48,368.486Z" style="fill:rgb(3,50,79);"/>
            </g>
        </g>
    </g>
</svg>
